# xmcd
#
# Track frame offsets:
#	150
#	18444
#	33465
#	48212
#	63776
#	78852
#	99642
#	119892
#	140217
#	155735
#	177617
#	195852
#	214762
#	230525
#	248724
#
# Disc length: 3548 seconds
#
# Revision: 1
# Processed by: cddbd v1.5.2PL0 Copyright (c) Steve Scherf et al.
# Submitted via: audiograbber 1.83.01
#
DISCID=d10dda0f
DTITLE=Various Artist - CBCDG60214
DYEAR=2001
DGENRE=Karaoke
TTITLE0=Montgomery Gentry - She Could'nt Change Me
TTITLE1=Sammy Kershaw and Lorrie Morgan - He Drinks Tequila
TTITLE2=Meredith Edwards - A Rose Is A Rose
TTITLE3=Clay Walker - Say No More
TTITLE4=Craig Morgan - I want Us Back
TTITLE5=Sara Evans - I Could Not Ask For More
TTITLE6=Kenny Chesney - For The First Time
TTITLE7=Soggy Bottom Boys - I Am A Man Of Constant Sorrow
TTITLE8=Sherrie Austin - Jolene
TTITLE9=Sons Of The Desert - What I Did Right
TTITLE10=Phil Vassar - Rose Bouquet
TTITLE11=Leslie Satcher Emmylou Harris Alison Krauss - Love Letters From Old Me
TTITLE11=xico
TTITLE12=Billy Ray Cyrus - Burn Down The Trailer park
TTITLE13=South Sixty Five - The Most Beautiful Girl
TTITLE14=I Will Love You - Lisa Angelle
EXTD=
EXTT0=
EXTT1=
EXTT2=
EXTT3=
EXTT4=
EXTT5=
EXTT6=
EXTT7=
EXTT8=
EXTT9=
EXTT10=
EXTT11=
EXTT12=
EXTT13=
EXTT14=
PLAYORDER=
